<svg xmlns="http://www.w3.org/2000/svg" width="111" height="77" viewBox="0 0 111 77">
  <g fill="none" fill-rule="evenodd">
    <path fill="#00A1E0" d="M45.7455753,67.9216225 C49.2698789,71.556803 54.1765065,73.811262 59.6030623,73.811262 C66.8166766,73.811262 73.1102982,69.8293603 76.4618113,63.918147 C79.3743431,65.2064094 82.5982091,65.9229668 85.9901956,65.9229668 C99.0008535,65.9229668 109.548857,55.3903436 109.548857,42.3983105 C109.548857,29.4047365 99.0008535,18.8721133 85.9901956,18.8721133 C84.402391,18.8721133 82.8503898,19.0292936 81.3497588,19.3297854 C78.3983102,14.1181788 72.7740572,10.5970311 66.3185418,10.5970311 C63.6161606,10.5970311 61.0601065,11.2149656 58.7842532,12.3136869 C55.7923312,5.34689988 48.8215576,0.461981738 40.6972907,0.461981738 C32.2367827,0.461981738 25.0262818,5.76142448 22.2585204,13.1935886 C21.0489869,12.9393263 19.7958666,12.8068017 18.5100562,12.8068017 C8.43683688,12.8068017 0.270539809,20.974015 0.270539809,31.050507 C0.270539809,37.8030973 3.93961381,43.6989007 9.39107632,46.8532942 C8.26871639,49.4097861 7.64449124,52.2313271 7.64449124,55.1977206 C7.64449124,66.7859176 17.1479689,76.1797539 28.8697029,76.1797539 C35.7517463,76.1797539 41.8679074,72.9406063 45.7455753,67.9216225" transform="matrix(1 0 0 -1 0 76.642)"/>
    <path fill="#FFFFFF" d="M16.0984606,32.2720442 C16.029967,32.0948311 16.1233673,32.0578475 16.1451607,32.0270278 C16.3506413,31.8790934 16.5592352,31.7727655 16.7693859,31.6541098 C17.8839624,31.068536 18.9362722,30.8974868 20.0368387,30.8974868 C22.2784452,30.8974868 23.6701093,32.0778803 23.6701093,33.9779131 L23.6701093,34.0148967 C23.6701093,35.7716181 22.099428,36.4095853 20.6252604,36.8703394 L20.4337898,36.9319788 C19.3223266,37.289487 18.3634172,37.5976837 18.3634172,38.321946 L18.3634172,38.3604706 C18.3634172,38.979946 18.9238188,39.4360772 19.7924413,39.4360772 C20.7575775,39.4360772 21.9032875,39.1186345 22.6411496,38.7148968 C22.6411496,38.7148968 22.8575269,38.5762083 22.9369171,38.7842411 C22.9805039,38.8951919 23.354105,39.8906673 23.3930218,39.9985362 C23.4350519,40.115651 23.3603317,40.201946 23.2840548,40.2481755 C22.4418957,40.7551592 21.2775056,41.1018805 20.0726421,41.1018805 L19.8484815,41.1003395 C17.7967888,41.1003395 16.3646514,39.8737165 16.3646514,38.1154542 L16.3646514,38.0784706 C16.3646514,36.2246673 17.9446726,35.6236836 19.4250669,35.2045361 L19.6632376,35.1321099 C20.7420107,34.8038803 21.6713434,34.5218803 21.6713434,33.7698803 L21.6713434,33.7328967 C21.6713434,33.045618 21.067355,32.5340114 20.0928789,32.5340114 C19.7146078,32.5340114 18.5081876,32.5417164 17.2052538,33.3568967 C17.04803,33.4478147 16.9561864,33.514077 16.8347661,33.5865033 C16.7709425,33.6265688 16.6106054,33.6959131 16.5405552,33.4863393 L16.0984606,32.2720442 L16.0984606,32.2720442 Z" transform="matrix(1 0 0 -1 0 72)"/>
    <path fill="#FFFFFF" d="M48.9146466,32.2720442 C48.8461531,32.0948311 48.9395533,32.0578475 48.9613467,32.0270278 C49.1668273,31.8790934 49.3754213,31.7727655 49.5855719,31.6541098 C50.7001484,31.068536 51.7524582,30.8974868 52.8530247,30.8974868 C55.0946312,30.8974868 56.4862953,32.0778803 56.4862953,33.9779131 L56.4862953,34.0148967 C56.4862953,35.7716181 54.915614,36.4095853 53.4414464,36.8703394 L53.2499759,36.9319788 C52.1385126,37.289487 51.1796032,37.5976837 51.1796032,38.321946 L51.1796032,38.3604706 C51.1796032,38.979946 51.7400048,39.4360772 52.6086273,39.4360772 C53.5737635,39.4360772 54.7194735,39.1186345 55.4573356,38.7148968 C55.4573356,38.7148968 55.6737129,38.5762083 55.7531031,38.7842411 C55.7966899,38.8951919 56.170291,39.8906673 56.2092078,39.9985362 C56.2512379,40.115651 56.1765177,40.201946 56.1002408,40.2481755 C55.2580817,40.7551592 54.0936916,41.1018805 52.8888281,41.1018805 L52.6646675,41.1003395 C50.6129749,41.1003395 49.1808374,39.8737165 49.1808374,38.1154542 L49.1808374,38.0784706 C49.1808374,36.2246673 50.7608586,35.6236836 52.2412529,35.2045361 L52.4794236,35.1321099 C53.5581968,34.8038803 54.4890861,34.5218803 54.4890861,33.7698803 L54.4890861,33.7328967 C54.4890861,33.045618 53.883541,32.5340114 52.9090649,32.5340114 C52.5307938,32.5340114 51.3243736,32.5417164 50.0214398,33.3568967 C49.864216,33.4478147 49.7708157,33.5109951 49.6525087,33.5865033 C49.6120353,33.6127 49.4221214,33.6851262 49.3567412,33.4863393 L48.9146466,32.2720442 L48.9146466,32.2720442 Z" transform="matrix(1 0 0 -1 0 72)"/>
    <path fill="#FFFFFF" d="M71.31733,35.987049 C71.31733,34.9129834 71.1149627,34.0669834 70.7164549,33.4690818 C70.3226171,32.877344 69.726412,32.5891801 68.8951496,32.5891801 C68.0623305,32.5891801 67.4692388,32.8758031 67.0816276,33.4690818 C66.6893465,34.0654424 66.4900926,34.9129834 66.4900926,35.987049 C66.4900926,37.0595736 66.6893465,37.9040327 67.0816276,38.4957704 C67.4692388,39.0813442 68.0623305,39.3664261 68.8951496,39.3664261 C69.726412,39.3664261 70.3226171,39.0813442 70.7180115,38.4957704 C71.1149627,37.9040327 71.31733,37.0595736 71.31733,35.987049 M73.1884487,37.9779999 C73.0047615,38.5928524 72.718334,39.1352786 72.3369496,39.5867868 C71.9555651,40.039836 71.4729971,40.4035081 70.9001421,40.6685573 C70.3288437,40.9320655 69.6532485,41.0661311 68.8951496,41.0661311 C68.135494,41.0661311 67.4598987,40.9320655 66.8886004,40.6685573 C66.3157454,40.4035081 65.8331773,40.039836 65.4502362,39.5867868 C65.0704085,39.1337376 64.783981,38.5913114 64.5987371,37.9779999 C64.4166066,37.3662294 64.324763,36.6974425 64.324763,35.987049 C64.324763,35.2766556 64.4166066,34.6063277 64.5987371,33.9960982 C64.783981,33.3827867 65.0688518,32.8403604 65.4517929,32.3873112 C65.8331773,31.9342621 66.3173021,31.5721309 66.8886004,31.3147866 C67.4614554,31.0574424 68.135494,30.9264588 68.8951496,30.9264588 C69.6532485,30.9264588 70.3272871,31.0574424 70.9001421,31.3147866 C71.4714404,31.5721309 71.9555651,31.9342621 72.3369496,32.3873112 C72.718334,32.8388194 73.0047615,33.3812457 73.1884487,33.9960982 C73.3721359,34.6078687 73.4639795,35.2781965 73.4639795,35.987049 C73.4639795,36.6959015 73.3721359,37.3662294 73.1884487,37.9779999" transform="matrix(1 0 0 -1 0 71.993)"/>
    <path fill="#FFFFFF" d="M88.5538901,32.8617769 C88.4916232,33.042072 88.3157194,32.9742687 88.3157194,32.9742687 C88.0433019,32.8710228 87.7537611,32.7754818 87.4455402,32.7277113 C87.1326493,32.6799408 86.7886249,32.6552851 86.4196939,32.6552851 C85.5137112,32.6552851 84.7945291,32.9218753 84.279271,33.4488917 C83.7624561,33.9759081 83.4729153,34.828072 83.4760286,35.9807278 C83.479142,37.0301377 83.7344361,37.8191213 84.1936541,38.4201049 C84.6497587,39.0180065 85.3440341,39.3246623 86.2702534,39.3246623 C87.0423623,39.3246623 87.6307841,39.2368262 88.2472258,39.0442033 C88.2472258,39.0442033 88.3951096,38.9810229 88.4651598,39.1721049 C88.6286103,39.6220721 88.7500306,39.9441377 88.9243778,40.4387935 C88.9741913,40.579023 88.8527709,40.6391213 88.8091841,40.6560722 C88.5663434,40.7500722 87.9934884,40.9026295 87.5607338,40.9673509 C87.1559993,41.0289902 86.6827713,41.0613509 86.1566164,41.0613509 C85.3704975,41.0613509 84.6699954,40.9288263 84.070677,40.6637771 C83.4729153,40.4002689 82.9654405,40.0365967 82.5638193,39.5835475 C82.1621982,39.1304984 81.8570906,38.5880721 81.6531667,37.9747606 C81.4507994,37.3629901 81.3480591,36.6911213 81.3480591,35.9807278 C81.3480591,34.4443671 81.7668037,33.2023343 82.5933961,32.2931539 C83.4215452,31.3808916 84.6653254,30.9170556 86.2873768,30.9170556 C87.2462863,30.9170556 88.2301025,31.1096785 88.9368312,31.3855146 C88.9368312,31.3855146 89.0722616,31.4502359 89.0131081,31.6058752 L88.5538901,32.8617769 L88.5538901,32.8617769 Z" transform="matrix(1 0 0 -1 0 71.978)"/>
    <path fill="#FFFFFF" d="M91.827711,37.0184438 C91.9164413,37.6148045 92.0830051,38.1110012 92.3398558,38.4977881 C92.7274669,39.0849028 93.319002,39.4069684 94.1502644,39.4069684 C94.9815268,39.4069684 95.5310318,39.0833619 95.9248696,38.4977881 C96.1863903,38.1110012 96.3000273,37.5932307 96.3451708,37.0184438 L91.827711,37.0184438 L91.827711,37.0184438 Z M98.1275593,38.3298209 C97.9687789,38.9230996 97.574941,39.5225422 97.3165336,39.7968373 C96.9086858,40.2313947 96.5101779,40.5349685 96.1147835,40.7044767 C95.5979686,40.9232963 94.9784135,41.0681488 94.2997049,41.0681488 C93.5089159,41.0681488 92.7912905,40.9371652 92.2090954,40.6659521 C91.6253437,40.3947389 91.1349923,40.0249029 90.7504945,39.5641488 C90.3659968,39.1049356 90.0764559,38.5578864 89.8927687,37.93687 C89.7075248,37.3189356 89.6141246,36.6455257 89.6141246,35.9351323 C89.6141246,35.212411 89.7106382,34.5390011 89.9021087,33.9333945 C90.095136,33.323165 90.4033569,32.7853617 90.8205447,32.3400175 C91.2361759,31.8915912 91.7716708,31.5402469 92.4130194,31.2952305 C93.0496979,31.0517551 93.8233635,30.9253945 94.7122227,30.9269355 C96.5413114,30.9330994 97.5048908,31.3368371 97.901842,31.5541158 C97.9718922,31.5926404 98.0388291,31.6604437 97.9547688,31.8546076 L97.5406943,33.0026404 C97.4784274,33.1736896 97.3025236,33.1105093 97.3025236,33.1105093 C96.8495323,32.944083 96.2050704,32.6451322 94.7028827,32.6482142 C93.7206232,32.6497552 92.9921011,32.9363781 92.5359964,33.3848044 C92.0674384,33.8440175 91.8386077,34.5189683 91.7981342,35.4712962 L98.1322293,35.4651323 C98.1322293,35.4651323 98.2987931,35.4682142 98.3159165,35.6284765 C98.3221432,35.6962798 98.5338505,36.9167389 98.1275593,38.3298209 L98.1275593,38.3298209 Z" transform="matrix(1 0 0 -1 0 71.995)"/>
    <path fill="#FFFFFF" d="M41.1007797,37.0184438 C41.1910666,37.6148045 41.3560737,38.1110012 41.6129245,38.4977881 C42.0005356,39.0849028 42.5920707,39.4069684 43.4233331,39.4069684 C44.2545955,39.4069684 44.8041004,39.0833619 45.1994949,38.4977881 C45.459459,38.1110012 45.573096,37.5932307 45.6182395,37.0184438 L41.1007797,37.0184438 L41.1007797,37.0184438 Z M47.3990713,38.3298209 C47.2402908,38.9230996 46.8480097,39.5225422 46.5896023,39.7968373 C46.1817544,40.2313947 45.7832466,40.5349685 45.3878521,40.7044767 C44.8710373,40.9232963 44.2514822,41.0681488 43.5727735,41.0681488 C42.7835412,41.0681488 42.0643591,40.9371652 41.4821641,40.6659521 C40.8984124,40.3947389 40.408061,40.0249029 40.0235632,39.5641488 C39.6390654,39.1049356 39.3495246,38.5578864 39.1658374,37.93687 C38.9821502,37.3189356 38.8871932,36.6455257 38.8871932,35.9351323 C38.8871932,35.212411 38.9837068,34.5390011 39.1751774,33.9333945 C39.3682046,33.323165 39.6764255,32.7853617 40.0936134,32.3400175 C40.5092446,31.8915912 41.0447395,31.5402469 41.686088,31.2952305 C42.3227666,31.0517551 43.0964321,30.9253945 43.9852914,30.9269355 C45.81438,30.9330994 46.7779595,31.3368371 47.1749107,31.5541158 C47.2449609,31.5926404 47.3118977,31.6604437 47.2278375,31.8546076 L46.8153196,33.0026404 C46.7514961,33.1736896 46.5755922,33.1105093 46.5755922,33.1105093 C46.1226009,32.944083 45.4796957,32.6451322 43.9743947,32.6482142 C42.9936918,32.6497552 42.2651697,32.9363781 41.8090651,33.3848044 C41.340507,33.8440175 41.1116764,34.5189683 41.0712029,35.4712962 L47.405298,35.4651323 C47.405298,35.4651323 47.5718618,35.4682142 47.5889852,35.6284765 C47.5952119,35.6962798 47.8069192,36.9167389 47.3990713,38.3298209 L47.3990713,38.3298209 Z" transform="matrix(1 0 0 -1 0 71.995)"/>
    <path fill="#FFFFFF" d="M27.4097005,32.9013819 C27.1621898,33.0970869 27.127943,33.1463983 27.0438827,33.272759 C26.9193491,33.4653819 26.8555255,33.739677 26.8555255,34.0879393 C26.8555255,34.6396115 27.0392127,35.0356443 27.4205972,35.3022344 C27.4159272,35.3006935 27.9654321,35.7722345 29.2574692,35.7552836 C30.1650085,35.7429558 30.9760342,35.6104312 30.9760342,35.6104312 L30.9760342,32.7596114 L30.9775909,32.7596114 C30.9775909,32.7596114 30.1727918,32.5885623 29.2668092,32.5346278 C27.9778855,32.4575786 27.4050305,32.9029229 27.4097005,32.9013819 M29.9299511,37.3070542 C29.6731004,37.325546 29.3399728,37.3363328 28.9414649,37.3363328 C28.3981867,37.3363328 27.8735885,37.2685296 27.3816804,37.137546 C26.886659,37.0065624 26.441451,36.8016115 26.0585099,36.5303984 C25.6740121,36.2576443 25.3642345,35.909382 25.1400739,35.4963984 C24.9159132,35.0834148 24.8022762,34.5964639 24.8022762,34.0509557 C24.8022762,33.4962016 24.8987898,33.0138737 25.0918171,32.6193819 C25.2848443,32.2233491 25.5634884,31.8935786 25.9184095,31.6393163 C26.2702172,31.385054 26.7045284,31.198595 27.2088899,31.0861032 C27.705468,30.9736114 28.268983,30.916595 28.8854248,30.916595 C29.5345567,30.916595 30.1821319,30.9689884 30.8094704,31.0753163 C31.4305822,31.1801032 32.1933511,31.3326606 32.4050583,31.3804311 C32.6152089,31.4297426 32.8487096,31.4929229 32.8487096,31.4929229 C33.0059334,31.5314475 32.99348,31.6978737 32.99348,31.6978737 L32.9903667,37.4318738 C32.9903667,38.6893165 32.6510124,39.6216116 31.9832004,40.1994805 C31.3185018,40.7758083 30.3393557,41.0670542 29.073782,41.0670542 C28.5989973,41.0670542 27.8346717,41.0023329 27.3770104,40.9114149 C27.3770104,40.9114149 25.9931297,40.6463657 25.423388,40.2056444 C25.423388,40.2056444 25.2988543,40.1285952 25.3673479,39.956005 L25.8156692,38.7632837 C25.8717093,38.6091853 26.0227064,38.6615788 26.0227064,38.6615788 C26.0227064,38.6615788 26.0709633,38.6800706 26.1270034,38.7124312 C27.345877,39.3688903 28.8869814,39.3488575 28.8869814,39.3488575 C29.5719168,39.3488575 30.0980716,39.2132509 30.4529927,38.9435788 C30.7985737,38.6816116 30.9744775,38.2855788 30.9744775,37.4503656 L30.9744775,37.1853165 C30.4296426,37.2623656 29.9299511,37.3070542 29.9299511,37.3070542" transform="matrix(1 0 0 -1 0 71.984)"/>
    <path fill="#FFFFFF" d="M81.0170989,40.4476013 C81.0653557,40.5893718 80.9641721,40.6571751 80.922142,40.6725849 C80.8147317,40.7141915 80.2761234,40.8266833 79.8604922,40.85288 C79.0650333,40.9006505 78.6229386,40.7681259 78.2275442,40.5924538 C77.835263,40.4167816 77.3993951,40.1332407 77.1565544,39.8111751 L77.1565544,40.573962 C77.1565544,40.6802898 77.0802775,40.7650439 76.9744238,40.7650439 L75.3508158,40.7650439 C75.2449621,40.7650439 75.1686853,40.6802898 75.1686853,40.573962 L75.1686853,31.2217323 C75.1686853,31.1169454 75.2558588,31.0306503 75.3617125,31.0306503 L77.025794,31.0306503 C77.1316476,31.0306503 77.2172645,31.1169454 77.2172645,31.2217323 L77.2172645,35.8939947 C77.2172645,36.521175 77.2873148,37.1468144 77.4274152,37.5397652 C77.5644022,37.9280931 77.7512028,38.2393718 77.9815901,38.4628144 C78.2135341,38.684716 78.4766115,38.8403554 78.7645957,38.9281914 C79.0588066,39.0175685 79.3841508,39.0468472 79.6145382,39.0468472 C79.9461091,39.0468472 80.3103702,38.9620931 80.3103702,38.9620931 C80.4317906,38.9482242 80.5002841,39.0221914 80.5407575,39.1316013 C80.6497245,39.4182242 80.9579454,40.2765521 81.0170989,40.4476013" transform="matrix(1 0 0 -1 0 71.893)"/>
    <path fill="#FFFFFF" d="M65.3971469,45.1438855 C65.1947797,45.2055249 65.0110925,45.2471314 64.7713651,45.29182 C64.5285244,45.3349675 64.2389836,45.3565413 63.9105259,45.3565413 C62.7648159,45.3565413 61.8619466,45.0360167 61.2283815,44.4042134 C60.5979296,43.7754921 60.1698451,42.8185412 59.9550244,41.5595576 L59.8771909,41.1357871 L58.4388267,41.1357871 C58.4388267,41.1357871 58.2644795,41.141951 58.2271194,40.953951 L57.9920621,39.6487379 C57.9749387,39.5254592 58.0294222,39.446869 58.1975427,39.446869 L59.5969901,39.446869 L58.1773059,31.6001803 C58.0667823,30.968377 57.9391352,30.4490655 57.7974782,30.0545737 C57.6589344,29.6662459 57.523504,29.3749999 57.3553835,29.1623442 C57.1934897,28.9589344 57.040936,28.807918 56.7763019,28.7200819 C56.5583679,28.6476557 56.3061872,28.613754 56.0306564,28.613754 C55.8781026,28.613754 55.6741787,28.6384098 55.5231816,28.6692294 C55.3737411,28.6985081 55.2943509,28.7308688 55.1807139,28.7786393 C55.1807139,28.7786393 55.0172634,28.8402786 54.9518832,28.6784753 C54.9005131,28.5444098 54.526912,27.5289015 54.4817685,27.4040819 C54.4381817,27.2792622 54.5004486,27.1821802 54.5798388,27.1529015 C54.7666394,27.0881802 54.9051831,27.0450327 55.1589205,26.9849343 C55.5107282,26.9032622 55.8080524,26.8986392 56.0866965,26.8986392 C56.6688915,26.8986392 57.2012731,26.9803114 57.641811,27.1374917 C58.0839057,27.296213 58.4699601,27.5720491 58.8124278,27.9449671 C59.1813589,28.3487048 59.4133029,28.7709344 59.6343502,29.3488032 C59.8538408,29.9189672 60.042198,30.6278196 60.1916385,31.4537869 L61.6191059,39.446869 L63.7050453,39.446869 C63.7050453,39.446869 63.8809492,39.4407051 63.9167526,39.6302461 L64.1533666,40.9339182 C64.1689333,41.0587379 64.1160065,41.1357871 63.9463294,41.1357871 L61.9211001,41.1357871 C61.9319968,41.1804756 62.0238404,41.8862461 62.2557845,42.5504101 C62.3554114,42.8324101 62.542212,43.0620166 62.6994357,43.219197 C62.8551029,43.3732953 63.0341201,43.4827052 63.2302606,43.5458855 C63.4310712,43.6106068 63.6599019,43.6414265 63.9105259,43.6414265 C64.1004398,43.6414265 64.288797,43.6198527 64.4304541,43.590574 C64.6265947,43.5489675 64.7028716,43.5273937 64.7542417,43.5119839 C64.961279,43.4503445 64.9892991,43.5104429 65.0297725,43.6090658 L65.5138973,44.9250659 C65.5637107,45.0668363 65.4407337,45.1269347 65.3971469,45.1438855" transform="matrix(1 0 0 -1 0 72.255)"/>
    <path fill="#FFFFFF" d="M37.1007578,27.2901977 C37.1007578,27.1854108 37.0244809,27.1006567 36.9186273,27.1006567 L35.2389791,27.1006567 C35.1331254,27.1006567 35.0584052,27.1854108 35.0584052,27.2901977 L35.0584052,40.6720997 C35.0584052,40.7768865 35.1331254,40.8616406 35.2389791,40.8616406 L36.9186273,40.8616406 C37.0244809,40.8616406 37.1007578,40.7768865 37.1007578,40.6720997 L37.1007578,27.2901977 L37.1007578,27.2901977 Z" transform="matrix(1 0 0 -1 0 67.962)"/>
  </g>
</svg>
