<svg id="Layer_1" data-name="Layer 1" xmlns="http://www.w3.org/2000/svg" viewBox="0 0 1035.74 251.98"><defs><style>.cls-1{fill:#00a1e0;}.cls-2,.cls-3{fill:#fff;}.cls-3{fill-rule:evenodd;}.cls-4{fill:#7c868d;}</style></defs><title>2016sf_CommerceCloud_logo_RGB</title><path class="cls-1" d="M221.81,297.49a63.09,63.09,0,0,1,45.65-19.6A63.73,63.73,0,0,1,323,310.82a76.75,76.75,0,0,1,31.39-6.67c42.86,0,77.61,35.05,77.61,78.29s-34.75,78.29-77.61,78.29a77.28,77.28,0,0,1-15.29-1.52,56.73,56.73,0,0,1-74.34,23.34,64.73,64.73,0,0,1-120.33-2.93,59.66,59.66,0,0,1-12.35,1.29C98.9,480.91,72,453.73,72,420.2a60.8,60.8,0,0,1,30-52.59A69.91,69.91,0,0,1,221.81,297.49Z" transform="translate(-72 -270.01)"/><path class="cls-2" d="M124.14,400.68a0.61,0.61,0,0,0,.15.82,21.67,21.67,0,0,0,12.82,3.75c7.38,0,12-3.93,12-10.25v-0.13c0-5.85-5.18-8-10-9.5l-0.63-.21c-3.66-1.19-6.82-2.21-6.82-4.63v-0.12c0-2.06,1.85-3.58,4.71-3.58a21.3,21.3,0,0,1,9.38,2.4,0.63,0.63,0,0,0,1-.23c0.14-.37,1.37-3.68,1.5-4a0.69,0.69,0,0,0-.36-0.83,20.94,20.94,0,0,0-10.58-2.84H136.5c-6.76,0-11.48,4.09-11.48,9.94v0.13c0,6.16,5.2,8.17,10.08,9.56l0.78,0.24c3.55,1.09,6.62,2,6.62,4.53v0.13c0,2.29-2,4-5.2,4a17.43,17.43,0,0,1-9.51-2.74c-0.52-.3-0.82-0.52-1.22-0.77a0.59,0.59,0,0,0-1,.33Z" transform="translate(-72 -270.01)"/><path class="cls-2" d="M232.25,400.68a0.61,0.61,0,0,0,.15.82,21.67,21.67,0,0,0,12.82,3.75c7.39,0,12-3.93,12-10.25v-0.13c0-5.85-5.18-8-10-9.5l-0.63-.21c-3.66-1.19-6.82-2.21-6.82-4.63v-0.12c0-2.06,1.85-3.58,4.71-3.58a21.3,21.3,0,0,1,9.38,2.4,0.63,0.63,0,0,0,1-.23l1.5-4a0.69,0.69,0,0,0-.36-0.83,20.94,20.94,0,0,0-10.58-2.84H244.6c-6.76,0-11.48,4.09-11.48,9.94v0.13c0,6.16,5.2,8.17,10.08,9.56l0.78,0.24c3.55,1.09,6.62,2,6.62,4.53v0.13c0,2.29-2,4-5.2,4a17.43,17.43,0,0,1-9.51-2.74c-0.52-.3-0.82-0.51-1.22-0.77a0.63,0.63,0,0,0-1,.33Z" transform="translate(-72 -270.01)"/><path class="cls-2" d="M312.22,381.67a14.9,14.9,0,0,0-2.81-5.36,13.56,13.56,0,0,0-4.73-3.6,17.15,17.15,0,0,0-13.22,0,13.56,13.56,0,0,0-4.74,3.6,14.91,14.91,0,0,0-2.8,5.35,24.66,24.66,0,0,0,0,13.25,14.9,14.9,0,0,0,2.81,5.36,13.26,13.26,0,0,0,4.74,3.57,17.52,17.52,0,0,0,13.21,0,13.25,13.25,0,0,0,4.74-3.57,14.9,14.9,0,0,0,2.81-5.36,24.66,24.66,0,0,0,0-13.25m-6.17,6.62c0,3.57-.67,6.39-2,8.38a6.63,6.63,0,0,1-6,2.93,6.55,6.55,0,0,1-6-2.93c-1.29-2-1.95-4.81-1.95-8.38s0.66-6.38,1.95-8.35,3.23-2.9,6-2.9a6.65,6.65,0,0,1,6,2.9c1.31,2,2,4.78,2,8.35" transform="translate(-72 -270.01)"/><path class="cls-3" d="M362.84,398.65a0.58,0.58,0,0,0-.79-0.37,14.18,14.18,0,0,1-2.87.82,22,22,0,0,1-3.38.24,9.39,9.39,0,0,1-7-2.64c-1.7-1.76-2.66-4.59-2.65-8.43a13.09,13.09,0,0,1,2.37-8.12c1.5-2,3.79-3,6.84-3a20.64,20.64,0,0,1,6.52.93,0.53,0.53,0,0,0,.71-0.43c0.54-1.5.94-2.56,1.52-4.21a0.56,0.56,0,0,0-.38-0.73,24.29,24.29,0,0,0-4.11-1,31.24,31.24,0,0,0-4.62-.31,16.83,16.83,0,0,0-6.87,1.32,14.25,14.25,0,0,0-5,3.6,15.19,15.19,0,0,0-3,5.35,21.26,21.26,0,0,0-1,6.64c0,5.11,1.38,9.24,4.1,12.27s6.83,4.58,12.17,4.58a25.11,25.11,0,0,0,8.73-1.56,0.56,0.56,0,0,0,.25-0.73Z" transform="translate(-72 -270.01)"/><path class="cls-3" d="M394.37,380.51a13,13,0,0,0-2.67-4.89,12.18,12.18,0,0,0-4-3,15.21,15.21,0,0,0-6-1.21,16.35,16.35,0,0,0-6.89,1.34,13.74,13.74,0,0,0-4.8,3.67,15.11,15.11,0,0,0-2.83,5.42,23.49,23.49,0,0,0-.91,6.66,22.37,22.37,0,0,0,.95,6.66,13.37,13.37,0,0,0,8.27,8.78,20.9,20.9,0,0,0,7.57,1.23c6,0,9.2-1.36,10.51-2.09,0.23-.13.45-0.35,0.18-1l-1.37-3.82a0.6,0.6,0,0,0-.79-0.36,20.09,20.09,0,0,1-8.57,1.54c-3.23,0-5.63-1-7.14-2.46s-2.3-3.77-2.43-6.94l20.86,0a0.61,0.61,0,0,0,.61-0.54A22.28,22.28,0,0,0,394.37,380.51Zm-20.75,4.36a12.17,12.17,0,0,1,1.69-4.92,6.65,6.65,0,0,1,6-3,6.48,6.48,0,0,1,5.85,3,10.32,10.32,0,0,1,1.38,4.92H373.62Z" transform="translate(-72 -270.01)"/><path class="cls-3" d="M227.26,380.51a13,13,0,0,0-2.67-4.89,12.18,12.18,0,0,0-4-3,15.21,15.21,0,0,0-6-1.21,16.35,16.35,0,0,0-6.89,1.34,13.75,13.75,0,0,0-4.8,3.67,15.1,15.1,0,0,0-2.83,5.42,23.49,23.49,0,0,0-.91,6.66,22.37,22.37,0,0,0,.95,6.66,13.38,13.38,0,0,0,8.27,8.78,20.9,20.9,0,0,0,7.57,1.23c6,0,9.2-1.36,10.51-2.09,0.23-.13.45-0.35,0.18-1l-1.36-3.82a0.6,0.6,0,0,0-.79-0.36,20.09,20.09,0,0,1-8.57,1.54c-3.23,0-5.63-1-7.14-2.46s-2.3-3.77-2.43-6.94l20.86,0a0.61,0.61,0,0,0,.61-0.54A22.28,22.28,0,0,0,227.26,380.51Zm-20.75,4.36a12.17,12.17,0,0,1,1.69-4.92,6.65,6.65,0,0,1,6-3,6.48,6.48,0,0,1,5.85,3,10.33,10.33,0,0,1,1.38,4.92H206.51Z" transform="translate(-72 -270.01)"/><path class="cls-2" d="M169.71,383.87c-0.85-.06-1.94-0.09-3.26-0.09a19.77,19.77,0,0,0-5.14.66,13.47,13.47,0,0,0-4.36,2,9.75,9.75,0,0,0-4.14,8.25,10.9,10.9,0,0,0,1,4.76,8.65,8.65,0,0,0,2.72,3.27,11.48,11.48,0,0,0,4.25,1.84,25,25,0,0,0,5.52.56,38.07,38.07,0,0,0,6.34-.53c2-.35,4.56-0.86,5.25-1s1.46-.37,1.46-0.37a0.66,0.66,0,0,0,.48-0.68V383.46c0-4.19-1.12-7.29-3.32-9.21s-5.41-2.88-9.58-2.88a34.34,34.34,0,0,0-5.59.52s-4.55.88-6.43,2.35a0.65,0.65,0,0,0-.19.83l1.48,4a0.53,0.53,0,0,0,.68.34,2.72,2.72,0,0,0,.34-0.17,21.22,21.22,0,0,1,9.09-2.12,8.41,8.41,0,0,1,5.16,1.35c1.14,0.87,1.72,2.19,1.72,5v0.88C171.36,384,169.71,383.87,169.71,383.87Zm-8.3,14.66a4.13,4.13,0,0,1-1.2-1.24,5,5,0,0,1-.62-2.71,4.58,4.58,0,0,1,1.86-4s1.8-1.56,6.05-1.51a42.48,42.48,0,0,1,5.67.48V399h0a42.41,42.41,0,0,1-5.64.75C163.28,400,161.39,398.53,161.41,398.53Z" transform="translate(-72 -270.01)"/><path class="cls-3" d="M338,373.12a0.57,0.57,0,0,0-.31-0.75,18.24,18.24,0,0,0-3.5-.6,10.36,10.36,0,0,0-5.38.87,9.39,9.39,0,0,0-3.53,2.6V372.7a0.6,0.6,0,0,0-.6-0.63h-5.35a0.6,0.6,0,0,0-.6.63v31.13a0.63,0.63,0,0,0,.63.63h5.48a0.63,0.63,0,0,0,.63-0.63V388.27a18.34,18.34,0,0,1,.69-5.48,7.84,7.84,0,0,1,1.83-3.07,6.36,6.36,0,0,1,2.58-1.55,10.09,10.09,0,0,1,2.8-.39,11.83,11.83,0,0,1,2.29.28,0.71,0.71,0,0,0,.76-0.56C336.8,376.55,337.81,373.69,338,373.12Z" transform="translate(-72 -270.01)"/><path class="cls-3" d="M286.55,358.7a17.17,17.17,0,0,0-2.06-.49,16.17,16.17,0,0,0-2.84-.22c-3.77,0-6.75,1.07-8.84,3.17s-3.49,5.27-4.19,9.46L268.37,372h-4.74a0.7,0.7,0,0,0-.7.61L262.15,377c-0.05.42,0.12,0.67,0.68,0.67h4.61l-4.68,26.12a32.59,32.59,0,0,1-1.25,5.14,10.58,10.58,0,0,1-1.46,3,3.86,3.86,0,0,1-1.91,1.47,7.76,7.76,0,0,1-2.45.35,9.52,9.52,0,0,1-1.67-.18,5,5,0,0,1-1.13-.37,0.57,0.57,0,0,0-.75.33c-0.17.44-1.4,3.82-1.55,4.24a0.62,0.62,0,0,0,.32.83,15.75,15.75,0,0,0,1.91.56,12.61,12.61,0,0,0,3.06.29,15.26,15.26,0,0,0,5.12-.79,9.59,9.59,0,0,0,3.86-2.69,13.89,13.89,0,0,0,2.71-4.67,39.82,39.82,0,0,0,1.83-7l4.7-26.6H281a0.7,0.7,0,0,0,.7-0.61l0.78-4.34c0.05-.42-0.12-0.67-0.68-0.67H275.1a28.52,28.52,0,0,1,1.1-4.71,6,6,0,0,1,1.46-2.23,4.35,4.35,0,0,1,1.75-1.09,7.3,7.3,0,0,1,2.24-.32,8.57,8.57,0,0,1,1.71.17c0.65,0.14.9,0.21,1.07,0.26,0.68,0.21.77,0,.91-0.32l1.6-4.38A0.56,0.56,0,0,0,286.55,358.7Z" transform="translate(-72 -270.01)"/><path class="cls-3" d="M193.33,403.83a0.6,0.6,0,0,1-.6.63H187.2a0.6,0.6,0,0,1-.6-0.63V359.29a0.6,0.6,0,0,1,.6-0.63h5.53a0.6,0.6,0,0,1,.6.63v44.53Z" transform="translate(-72 -270.01)"/><path class="cls-4" d="M480.65,357.34a25.89,25.89,0,0,1,8.23,1.31,23.76,23.76,0,0,1,7,3.64l-3.06,5.31a19.86,19.86,0,0,0-12.15-3.87q-7.38,0-11.16,4.81t-3.78,12.92q0,7.92,3.78,12.83t11.07,4.91a22.88,22.88,0,0,0,12.33-3.87l2.79,5.4a26,26,0,0,1-15.66,5q-7.74,0-12.69-3.46a19.68,19.68,0,0,1-7.15-9A31.31,31.31,0,0,1,458,381.46q0-11,6-17.55T480.65,357.34Z" transform="translate(-72 -270.01)"/><path class="cls-4" d="M544.5,381.37A28.1,28.1,0,0,1,541.76,394a20.15,20.15,0,0,1-7.92,8.6,26.29,26.29,0,0,1-24.71,0,20.11,20.11,0,0,1-7.92-8.6,28.18,28.18,0,0,1-2.7-12.6q0-11,6-17.5t16.92-6.53a24.36,24.36,0,0,1,12.46,3,19.76,19.76,0,0,1,7.88,8.42A27.84,27.84,0,0,1,544.5,381.37Zm-38.07,0q0,8.19,3.73,13.18t11.3,5q7.65,0,11.43-5t3.78-13.18q0-8.19-3.78-13t-11.43-4.86q-7.65,0-11.34,4.86T506.43,381.37Z" transform="translate(-72 -270.01)"/><path class="cls-4" d="M553.21,368.86a85.72,85.72,0,0,0-.63-10.26h7.29a49.24,49.24,0,0,1,.63,6.48h0.18a16.34,16.34,0,0,1,6.08-5.58,18.42,18.42,0,0,1,9-2.16,16.82,16.82,0,0,1,9.54,2.48,14.3,14.3,0,0,1,5.4,6.79h0.18a17.65,17.65,0,0,1,6.39-6.79,18.29,18.29,0,0,1,9.72-2.48,16.91,16.91,0,0,1,9.45,2.48,15,15,0,0,1,5.58,6.48,21.16,21.16,0,0,1,1.8,8.78v29.34h-7.65V376.15a15,15,0,0,0-2.57-8.91q-2.56-3.6-8.23-3.6a11.76,11.76,0,0,0-7.11,2.16,13.47,13.47,0,0,0-4.5,5.76,19.57,19.57,0,0,0-1.53,7.74v25.11h-7.65V376A14.43,14.43,0,0,0,582,367.2q-2.61-3.56-8.19-3.55a11.7,11.7,0,0,0-9.45,4.18,15.5,15.5,0,0,0-3.51,10.3v26.28h-7.65V368.86Z" transform="translate(-72 -270.01)"/><path class="cls-4" d="M634.94,368.86a85.62,85.62,0,0,0-.63-10.26h7.29a49.15,49.15,0,0,1,.63,6.48h0.18a16.34,16.34,0,0,1,6.08-5.58,18.42,18.42,0,0,1,9-2.16,16.82,16.82,0,0,1,9.54,2.48,14.31,14.31,0,0,1,5.4,6.79h0.18a17.64,17.64,0,0,1,6.39-6.79,18.29,18.29,0,0,1,9.72-2.48,16.91,16.91,0,0,1,9.45,2.48,15,15,0,0,1,5.58,6.48,21.18,21.18,0,0,1,1.8,8.78v29.34h-7.65V376.15a15,15,0,0,0-2.57-8.91q-2.56-3.6-8.24-3.6A11.76,11.76,0,0,0,680,365.8a13.47,13.47,0,0,0-4.5,5.76A19.56,19.56,0,0,0,674,379.3v25.11h-7.65V376a14.43,14.43,0,0,0-2.61-8.77q-2.61-3.56-8.19-3.55a11.7,11.7,0,0,0-9.45,4.18,15.5,15.5,0,0,0-3.51,10.3v26.28h-7.65V368.86Z" transform="translate(-72 -270.01)"/><path class="cls-4" d="M755.95,384.25h-34q0.45,7,4.23,11.16t10.8,4.14a22.82,22.82,0,0,0,7.42-1.12,28.11,28.11,0,0,0,6.62-3.38l3.42,5a30.18,30.18,0,0,1-8.23,4.23,30.79,30.79,0,0,1-9.68,1.44q-10.53,0-16.42-6.66t-5.89-17.73a29.28,29.28,0,0,1,2.52-12.51,19.31,19.31,0,0,1,7.33-8.42,21.35,21.35,0,0,1,11.57-3q10,0,15.25,6.48T756.13,381A21.53,21.53,0,0,1,755.95,384.25Zm-7.29-5.94q-0.18-6.84-3.51-11t-9.63-4.14q-6.39,0-9.9,4.27a17.74,17.74,0,0,0-3.78,10.85h26.82Z" transform="translate(-72 -270.01)"/><path class="cls-4" d="M764.8,368.86a85.62,85.62,0,0,0-.63-10.26h7.29a72.1,72.1,0,0,1,.63,7.29h0.18q4-8.55,14.4-8.55a22,22,0,0,1,2.61.27l-0.45,6.57A15.69,15.69,0,0,0,786,364q-6.57,0-10.08,4.41t-3.51,11.43v24.57H764.8V368.86Z" transform="translate(-72 -270.01)"/><path class="cls-4" d="M813.75,357.34a25.9,25.9,0,0,1,8.24,1.31,23.74,23.74,0,0,1,7,3.64l-3.06,5.31a19.86,19.86,0,0,0-12.15-3.87q-7.38,0-11.16,4.81t-3.78,12.92q0,7.92,3.78,12.83t11.07,4.91A22.88,22.88,0,0,0,826,395.32l2.79,5.4a26,26,0,0,1-15.66,5q-7.74,0-12.69-3.46a19.68,19.68,0,0,1-7.15-9,31.3,31.3,0,0,1-2.21-11.79q0-11,6-17.55T813.75,357.34Z" transform="translate(-72 -270.01)"/><path class="cls-4" d="M873.47,384.25h-34q0.45,7,4.23,11.16t10.8,4.14a22.83,22.83,0,0,0,7.43-1.12,28.1,28.1,0,0,0,6.61-3.38l3.42,5a30.2,30.2,0,0,1-8.24,4.23,30.79,30.79,0,0,1-9.67,1.44q-10.53,0-16.43-6.66t-5.89-17.73a29.29,29.29,0,0,1,2.52-12.51,19.3,19.3,0,0,1,7.34-8.42,21.35,21.35,0,0,1,11.56-3q10,0,15.25,6.48T873.66,381A21.37,21.37,0,0,1,873.47,384.25Zm-7.29-5.94q-0.18-6.84-3.51-11T853,363.19q-6.39,0-9.9,4.27a17.73,17.73,0,0,0-3.78,10.85h26.82Z" transform="translate(-72 -270.01)"/><path class="cls-4" d="M921.26,357.34a25.9,25.9,0,0,1,8.24,1.31,23.74,23.74,0,0,1,7,3.64l-3.06,5.31a19.86,19.86,0,0,0-12.15-3.87q-7.38,0-11.16,4.81t-3.78,12.92q0,7.92,3.78,12.83t11.07,4.91a22.88,22.88,0,0,0,12.33-3.87l2.79,5.4a26,26,0,0,1-15.66,5q-7.74,0-12.69-3.46a19.69,19.69,0,0,1-7.16-9,31.32,31.32,0,0,1-2.21-11.79q0-11,6-17.55T921.26,357.34Z" transform="translate(-72 -270.01)"/><path class="cls-4" d="M952.94,340.69v63.72h-7.65V340.69h7.65Z" transform="translate(-72 -270.01)"/><path class="cls-4" d="M1007.93,381.37a28.11,28.11,0,0,1-2.75,12.65,20.15,20.15,0,0,1-7.92,8.6,26.29,26.29,0,0,1-24.71,0,20.11,20.11,0,0,1-7.92-8.6,28.19,28.19,0,0,1-2.7-12.6q0-11,6-17.5t16.92-6.53a24.36,24.36,0,0,1,12.46,3,19.76,19.76,0,0,1,7.87,8.42A27.84,27.84,0,0,1,1007.93,381.37Zm-38.07,0q0,8.19,3.74,13.18t11.29,5q7.65,0,11.43-5t3.78-13.18q0-8.19-3.78-13t-11.43-4.86q-7.65,0-11.34,4.86T969.86,381.37Z" transform="translate(-72 -270.01)"/><path class="cls-4" d="M1015.13,386.68V358.6h7.74v27q0,6.3,2.75,10.13t8.5,3.82a12.25,12.25,0,0,0,10.08-4.73,18.2,18.2,0,0,0,3.78-11.75V358.6h7.65v35.64a84.67,84.67,0,0,0,.63,10.17H1049a65.74,65.74,0,0,1-.63-7.29h-0.18q-4.95,8.55-15.84,8.55-8.55,0-12.87-5.26T1015.13,386.68Z" transform="translate(-72 -270.01)"/><path class="cls-4" d="M1107.74,404.42h-7.11a44.41,44.41,0,0,1-.63-6.84h-0.18q-5.13,8.1-16.38,8.1-9.72,0-14.9-6.66t-5.17-17.37a29.09,29.09,0,0,1,2.57-12.37,20.74,20.74,0,0,1,7.33-8.73,19.74,19.74,0,0,1,11.25-3.2q9.18,0,14.94,5.94V340.69h7.65v53.55A84.67,84.67,0,0,0,1107.74,404.42Zm-8.28-19.71V370.3a17.86,17.86,0,0,0-6.08-5.08,17.39,17.39,0,0,0-7.78-1.67,12.45,12.45,0,0,0-10.49,5q-3.83,5-3.83,13.05,0,8.28,3.69,13.09a12.1,12.1,0,0,0,10.17,4.81,13.56,13.56,0,0,0,10.39-4.19A15,15,0,0,0,1099.46,384.7Z" transform="translate(-72 -270.01)"/></svg>